<svg width="320" height="160" viewBox="0 0 320 160" fill="none" xmlns="http://www.w3.org/2000/svg">
<path d="M240 0H176V30.4H240C267.36 30.4 289.6 52.64 289.6 80C289.6 102.88 273.92 122.08 252.64 127.68L276 151.04C302.08 137.76 320 111.2 320 80C320 35.84 284.16 0 240 0ZM224 64H188.96L220.96 96H224V64ZM74.56 0L49.76 6.08C20.64 17.92 0 46.56 0 80C0 124.16 35.84 160 80 160H144V129.6H80C52.64 129.6 30.4 107.36 30.4 80C30.4 54.56 49.76 33.6 74.56 30.88L107.68 64H96V96H139.68L176 132.32V160H203.68H224H240L74.56 0Z" fill="#9C9C9C"/>
</svg>
